<?xml version="1.0" encoding="UTF-8" standalone="no"?>
<svg
   xmlns:dc="http://purl.org/dc/elements/1.1/"
   xmlns:cc="http://creativecommons.org/ns#"
   xmlns:rdf="http://www.w3.org/1999/02/22-rdf-syntax-ns#"
   xmlns:svg="http://www.w3.org/2000/svg"
   xmlns="http://www.w3.org/2000/svg"
   xmlns:sodipodi="http://sodipodi.sourceforge.net/DTD/sodipodi-0.dtd"
   xmlns:inkscape="http://www.inkscape.org/namespaces/inkscape"
   version="1.1"
   x="0px"
   y="0px"
   viewBox="0 0 700 700"
   enable-background="new 0 0 428 162"
   xml:space="preserve"
   id="svg16"
   sodipodi:docname="remo-logo-2.svg"
   width="700"
   height="700"
   inkscape:export-filename="C:\Users\suitedoalex\sites\remo-drumheads-logo-0.png"
   inkscape:export-xdpi="561.73999"
   inkscape:export-ydpi="561.73999"
   inkscape:version="0.92.4 (5da689c313, 2019-01-14)"><metadata
     id="metadata22"><rdf:RDF><cc:Work
         rdf:about=""><dc:format>image/svg+xml</dc:format><dc:type
           rdf:resource="http://purl.org/dc/dcmitype/StillImage" /><dc:title></dc:title></cc:Work></rdf:RDF></metadata><defs
     id="defs20" /><sodipodi:namedview
     pagecolor="#ffffff"
     bordercolor="#666666"
     borderopacity="1"
     objecttolerance="10"
     gridtolerance="10"
     guidetolerance="10"
     inkscape:pageopacity="0"
     inkscape:pageshadow="2"
     inkscape:window-width="1600"
     inkscape:window-height="837"
     id="namedview18"
     showgrid="false"
     inkscape:zoom="0.39018692"
     inkscape:cx="-34.42206"
     inkscape:cy="319.8305"
     inkscape:window-x="-8"
     inkscape:window-y="-8"
     inkscape:window-maximized="1"
     inkscape:current-layer="svg16" /><path
     d="m 280.4361,263.28641 -13.50497,1.82341 c -1.17904,36.12156 -20.15173,63.02515 -50.69964,71.81437 -30.97664,9.00359 -64.52407,-3.7515 -83.49593,-31.61976 l -12.11281,6.64467 46.08982,120.3703 1.71455,4.39419 h 4.71659 354.78443 4.82335 l 1.71455,-4.50305 44.91121,-121.11976 -12.21958,-6.21551 c -22.50898,34.51377 -56.48684,39.44306 -80.92515,32.47599 -31.19102,-8.89641 -51.77066,-37.08623 -52.52096,-71.81437 l -13.50497,-1.92809 c -10.07545,32.69162 -37.40821,53.91479 -69.5639,54.02198 -25.51018,0.21437 -57.34431,-14.04257 -70.20659,-54.34437 z m -3.10879,26.4761 c 15.97066,26.36767 42.55437,41.90959 73.53102,41.8024 30.22634,-0.21437 56.91473,-15.86431 72.56383,-41.58886 8.03892,29.47605 29.58282,52.1994 59.05886,60.55988 25.40299,7.28862 51.44951,2.2509 72.24353,-12.86228 l -31.61976,85.21258 h -345.2445 l -32.69161,-85.31934 c 21.75868,15.22036 49.09143,20.47245 74.92317,12.86227 28.72575,-8.36048 49.4109,-30.65467 57.23546,-60.66665 z"
     id="path2"
     inkscape:connector-curvature="0"
     style="stroke-width:1.07185626"
     inkscape:export-filename="C:\Users\suitedoalex\sites\remo-drumheads-logo-3.png"
     inkscape:export-xdpi="146.48357"
     inkscape:export-ydpi="146.48357" /><path
     d="m 241.95688,401.02036 h -32.37006 c -0.42874,0 -0.96467,0.10719 -1.28622,0.32156 -0.42875,0.32155 -0.64312,0.7503 -0.64312,1.28623 v 11.36167 h -13.93413 l -0.10719,-50.16287 h 49.62695 c 6.64551,0 10.61138,-0.7503 13.61257,2.46527 3.42994,3.64431 2.89402,6.21676 2.89402,15.32754 0,3.96587 0.53592,7.07425 -2.03653,9.96827 -2.35808,2.67964 -4.93054,2.14371 -4.93054,3.10838 0.10719,0.85748 2.89401,0.53593 4.71617,2.67964 2.14371,2.67964 1.92934,3.85868 1.92934,6.53832 v 9.96827 h -14.47006 v -7.61018 c 0,-2.57246 0.21437,-3.42994 -0.64311,-4.5018 -0.85748,-0.96467 -2.35809,-0.7503 -2.35809,-0.7503 z m -2.78682,-12.00479 c 4.60898,0 5.35928,0.21437 6.32395,-0.7503 0.7503,-0.96467 0.42874,-1.5006 0.42874,-5.25209 0,-4.07306 0.42874,-4.93054 -0.42874,-6.0024 -0.7503,-0.85748 -1.92934,-0.85748 -3.42994,-0.85748 h -32.69162 c 0,0 -0.7503,0 -1.07186,0.32155 -0.32155,0.32156 -0.42874,0.85749 -0.42874,1.28623 v 9.86108 c 0,0.32155 0.10719,0.64311 0.42874,0.96467 0.32156,0.42874 0.7503,0.42874 1.17905,0.42874 z"
     id="path6"
     inkscape:connector-curvature="0"
     style="stroke-width:1.07185626"
     inkscape:export-filename="C:\Users\suitedoalex\sites\remo-drumheads-logo-3.png"
     inkscape:export-xdpi="146.48357"
     inkscape:export-ydpi="146.48357" /><path
     d="m 273.8982,413.98982 v -50.05569 h 55.52215 v 11.04012 h -39.44431 c -0.42874,0 -0.75029,0 -1.28622,0.42875 -0.32156,0.21437 -0.53593,0.7503 -0.53593,1.17904 v 6.10958 c 0,0.42874 0.42874,0.7503 0.64311,0.96467 0.32156,0.21437 0.7503,0.21437 1.17904,0.21437 h 38.0509 v 9.64671 H 289.5473 c -0.42874,0 -0.64311,0.10718 -0.96467,0.21437 -0.42874,0.42874 -0.53593,0.64311 -0.53593,1.17904 v 6.10958 c -0.10718,0.42874 0.21437,0.85749 0.64312,0.96467 0.32155,0.21437 0.42874,0.32156 0.85748,0.42874 h 39.5515 v 11.57605 z"
     id="path8"
     inkscape:connector-curvature="0"
     style="stroke-width:1.07185626"
     inkscape:export-filename="C:\Users\suitedoalex\sites\remo-drumheads-logo-3.png"
     inkscape:export-xdpi="146.48357"
     inkscape:export-ydpi="146.48357" /><path
     d="m 362.32634,377.54671 c -0.6431,-1.5006 -1.60778,-1.28623 -2.78681,-1.28623 -1.07187,0 -0.96467,1.92934 -0.96467,3.32276 v 34.19221 h -14.2557 v -49.9485 h 25.93892 l 13.61257,30.65509 c 0.21438,0.42874 0.64312,1.71497 1.6078,1.71497 0.75029,0 1.17903,-0.96467 1.5006,-1.5006 l 13.93413,-30.76228 h 26.04611 v 49.94851 h -13.71976 v -34.62096 c 0,-2.46527 0,-3.0012 -0.96468,-3.0012 -0.96467,0 -1.5006,0 -2.2509,1.5006 l -18.75749,36.12156 h -11.57605 z"
     id="path10"
     inkscape:connector-curvature="0"
     style="stroke-width:1.07185626"
     inkscape:export-filename="C:\Users\suitedoalex\sites\remo-drumheads-logo-3.png"
     inkscape:export-xdpi="146.48357"
     inkscape:export-ydpi="146.48357" /><path
     d="m 505.0976,411.203 c -3.21557,3.42994 -7.18144,2.78682 -11.79042,2.78682 -2.14371,0 -36.44311,0 -38.69401,0 -4.18024,0 -7.28862,0.42874 -10.50419,-2.78682 -3.21557,-3.32276 -2.46527,-7.39581 -2.46527,-9.64671 0,-1.5006 0,-21.43713 0,-23.04491 0,-3.53713 -0.96467,-8.68204 2.67964,-12.00479 3.53712,-3.21557 8.25329,-2.57246 12.43353,-2.57246 1.39342,0 34.83533,0 36.5503,0 5.35929,0 8.25329,-0.64311 11.68323,2.57246 3.42994,3.21557 2.67966,7.18144 2.57246,11.1473 0,1.28623 0.10719,21.00839 0.10719,22.29461 0,3.10839 0.96467,7.503 -2.57246,11.2545 z m -10.18263,-33.22755 c 0,-1.82215 -2.03653,-2.46527 -2.57246,-2.46527 l -8.57485,-0.10718 h -25.61737 c -0.96467,0 -2.14371,0.10718 -2.89401,0.85748 -0.85748,0.7503 -0.85748,2.03653 -0.85748,3.0012 l -0.10719,19.61497 c 0,2.03653 1.5006,2.89401 3.42994,2.89401 h 34.40659 c 1.5006,0 2.67964,-1.07186 2.67964,-2.89401 z"
     id="path12"
     inkscape:connector-curvature="0"
     style="stroke-width:1.07185626"
     inkscape:export-filename="C:\Users\suitedoalex\sites\remo-drumheads-logo-3.png"
     inkscape:export-xdpi="146.48357"
     inkscape:export-ydpi="146.48357" /><path
     d="m 519.03174,373.36647 c -2.78683,0 -4.71618,-2.03653 -4.71618,-4.93054 0,-2.89401 1.92935,-4.93054 4.71618,-4.93054 2.78683,0 4.71617,2.03653 4.71617,4.93054 0.10718,2.89401 -1.92934,4.93054 -4.71617,4.93054 z m 0,1.5006 c 3.53713,0 6.43114,-2.89401 6.43114,-6.43114 0,-3.53713 -2.89401,-6.43114 -6.43114,-6.43114 -3.64432,0 -6.43115,2.89401 -6.43115,6.43114 0,3.53713 2.89402,6.43114 6.43115,6.43114 z m 1.60779,-5.89521 c 1.17904,-0.10719 1.92934,-0.64312 1.92934,-1.92934 0,-1.60779 -0.85749,-2.14372 -2.67964,-2.14372 h -3.42994 v 6.96707 h 1.5006 v -2.89401 h 1.17904 l 1.60778,2.89401 h 1.71497 z m -2.78683,-0.96467 v -1.92934 h 1.60778 c 0.64312,0 1.71497,-0.10719 1.71497,0.85748 0,0.85749 -0.53592,1.07186 -1.28622,1.07186 z"
     id="path14"
     inkscape:connector-curvature="0"
     style="stroke-width:1.07185626"
     inkscape:export-filename="C:\Users\suitedoalex\sites\remo-drumheads-logo-3.png"
     inkscape:export-xdpi="146.48357"
     inkscape:export-ydpi="146.48357" /></svg>